<?xml version="1.0" encoding="iso-8859-1"?>
<!-- Uploaded to: SVG Repo, www.svgrepo.com, Generator: SVG Repo Mixer Tools -->
<!DOCTYPE svg PUBLIC "-//W3C//DTD SVG 1.1//EN" "http://www.w3.org/Graphics/SVG/1.1/DTD/svg11.dtd">
<svg height="800px" width="800px" version="1.1" id="Capa_1" xmlns="http://www.w3.org/2000/svg" xmlns:xlink="http://www.w3.org/1999/xlink" 
	 viewBox="0 0 409.33 409.33" xml:space="preserve">
<g>
	<path style="fill:#222220;" d="M396.699,159.645L239.248,2.196c-2.929-2.928-7.678-2.928-10.606,0l-214.44,214.44
		c-2.929,2.93-2.929,7.678,0,10.607c2.929,2.928,7.678,2.928,10.606,0L233.945,18.106l146.844,146.843L154.514,391.223
		L23.238,259.946c-2.929-2.928-7.678-2.928-10.606,0c-2.929,2.93-2.929,7.678,0,10.607l136.58,136.58
		c1.464,1.464,3.384,2.196,5.303,2.196s3.839-0.732,5.303-2.196l236.881-236.881c1.407-1.407,2.197-3.314,2.197-5.304
		S398.105,161.052,396.699,159.645z"/>
	<path style="fill:#222220;" d="M355.93,169.832c2.929-2.93,2.929-7.678,0-10.607L239.67,42.964c-2.929-2.928-7.678-2.928-10.606,0
		l-147.4,147.399c-2.929,2.93-2.929,7.678,0,10.607l116.26,116.261c1.406,1.406,3.314,2.196,5.303,2.196s3.897-0.79,5.303-2.196
		l122.885-122.885c2.929-2.93,2.929-7.678,0-10.607c-2.929-2.928-7.678-2.928-10.606,0L203.226,301.322L97.573,195.667
		L234.367,58.875l110.957,110.957C348.252,172.759,353.001,172.759,355.93,169.832z"/>
	<path style="fill:#222220;" d="M40.251,257.108c-1.407,1.407-2.197,3.314-2.197,5.304s0.79,3.896,2.197,5.304L73.535,301
		c1.464,1.464,3.384,2.196,5.303,2.196c1.919,0,3.839-0.732,5.303-2.196l37.468-37.467c1.407-1.407,2.197-3.314,2.197-5.304
		s-0.79-3.896-2.197-5.304l-33.284-33.284c-2.928-2.927-7.677-2.929-10.606,0L40.251,257.108z M105.7,258.229l-26.861,26.86
		l-22.678-22.678l26.861-26.86L105.7,258.229z"/>
	<path style="fill:#222220;" d="M135.363,277.285l-37.467,37.467c-1.407,1.407-2.197,3.314-2.197,5.304s0.79,3.896,2.197,5.304
		l33.284,33.284c1.464,1.464,3.384,2.196,5.303,2.196c1.919,0,3.839-0.732,5.303-2.196l37.467-37.467
		c1.407-1.407,2.197-3.314,2.197-5.304s-0.79-3.896-2.197-5.304l-33.284-33.284C143.041,274.357,138.292,274.357,135.363,277.285z
		 M136.483,342.733l-22.678-22.678l26.861-26.86l22.678,22.678L136.483,342.733z"/>
	<path style="fill:#222220;" d="M228.219,124.82l19.188,4.644c0.274,0.066,0.548,0.113,0.822,0.148
		c0.102,0.013,0.204,0.018,0.306,0.026c0.171,0.015,0.341,0.028,0.511,0.031c0.044,0.001,0.088,0.008,0.132,0.008
		c0.047,0,0.092-0.011,0.139-0.012c0.366-0.007,0.729-0.032,1.084-0.092c0.038-0.006,0.074-0.017,0.112-0.024
		c0.335-0.061,0.663-0.148,0.984-0.253c0.065-0.021,0.131-0.039,0.195-0.062c0.328-0.117,0.645-0.26,0.952-0.421
		c0.071-0.037,0.141-0.076,0.211-0.115c0.305-0.172,0.6-0.361,0.878-0.574c0.045-0.034,0.086-0.073,0.13-0.108
		c0.265-0.212,0.517-0.442,0.752-0.69c0.03-0.031,0.062-0.059,0.091-0.091c0.244-0.266,0.464-0.554,0.668-0.855
		c0.041-0.06,0.082-0.12,0.121-0.181c0.194-0.305,0.368-0.625,0.518-0.961c0.026-0.059,0.049-0.121,0.074-0.181
		c0.149-0.359,0.28-0.728,0.375-1.118l2.4-9.917c1.318-5.448,0.437-11.083-2.483-15.868c-2.92-4.784-7.528-8.146-12.965-9.462
		l-0.275-0.066c-1.623-0.394-3.288-0.593-4.947-0.593c-9.715,0-18.097,6.601-20.385,16.051l-2.4,9.918l-31.207,128.93
		c-0.975,4.026,1.499,8.08,5.525,9.054l5.949,1.44l-3.669,15.159c-0.975,4.026,1.499,8.08,5.525,9.054
		c0.593,0.144,1.187,0.213,1.771,0.213c3.383,0,6.453-2.305,7.284-5.737l3.669-15.159l5.948,1.44
		c0.583,0.142,1.175,0.211,1.765,0.211c1.367,0,2.72-0.374,3.907-1.098c1.698-1.036,2.915-2.705,3.383-4.638l20.824-86.032
		c0.975-4.026-1.5-8.08-5.525-9.054c-4.029-0.977-8.079,1.499-9.054,5.524l-19.059,78.743l-5.948-1.44c0,0-0.001,0-0.001,0
		c0,0-0.001,0-0.001,0l-5.948-1.44L228.219,124.82z M232.384,107.613c0.653-2.696,3.04-4.58,5.806-4.58
		c0.472,0,0.95,0.058,1.408,0.169l0.275,0.066c1.554,0.377,2.868,1.335,3.701,2.699c0.833,1.365,1.084,2.972,0.708,4.525
		l-0.636,2.628l-11.898-2.88L232.384,107.613z"/>
</g>
</svg>